<mxfile host="app.diagrams.net" modified="2024-07-04T07:33:43.232Z" agent="Mozilla/5.0 (Windows NT 10.0; Win64; x64) AppleWebKit/537.36 (KHTML, like Gecko) Chrome/125.0.0.0 Safari/537.36 Edg/125.0.0.0" version="24.6.4" etag="ITKtE_Td70wWXGLAjr_O" type="github">
  <diagram name="Page-1" id="oMzzx25N9j34890iaJ7N">
    <mxGraphModel>
      <root>
        <mxCell id="0" />
        <mxCell id="1" parent="0" />
      </root>
    </mxGraphModel>
  </diagram>
</mxfile>
